<svg width="20" height="20" viewBox="0 0 20 20" fill="none" xmlns="http://www.w3.org/2000/svg">
<path fill-rule="evenodd" clip-rule="evenodd" d="M10 20C15.5228 20 20 15.5228 20 10C20 4.47715 15.5228 0 10 0C4.47715 0 0 4.47715 0 10C0 15.5228 4.47715 20 10 20ZM5.34548 2.10587C5.12854 2.18795 4.93154 2.31522 4.76754 2.47924V2.47824L3.79754 3.44724C3.10454 4.14124 2.79954 5.17824 3.13954 6.14524C4.01049 8.61893 5.42718 10.8648 7.28454 12.7162C9.13609 14.5732 11.3819 15.9896 13.8555 16.8602C14.8225 17.2002 15.8595 16.8952 16.5525 16.2022L17.5225 15.2322C18.2185 14.5372 18.1465 13.3882 17.3695 12.7842L15.2075 11.1032C15.0117 10.9509 14.7839 10.8451 14.5411 10.7938C14.2984 10.7425 14.0472 10.7471 13.8065 10.8072L11.7545 11.3202C11.648 11.3469 11.5364 11.3456 11.4305 11.3163C11.3247 11.287 11.2282 11.2309 11.1505 11.1532L8.84654 8.85024C8.76893 8.77255 8.71275 8.67608 8.68349 8.57024C8.65422 8.46439 8.65286 8.35277 8.67954 8.24624L9.19254 6.19324C9.31454 5.70624 9.20554 5.18924 8.89654 4.79324L7.21554 2.63124C7.07309 2.44819 6.89334 2.29753 6.68823 2.18924C6.48311 2.08095 6.25732 2.01752 6.02582 2.00314C5.79432 1.98877 5.56241 2.02379 5.34548 2.10587Z" fill="#8A7A48"/>
</svg>
